# xmcd
#
# Track frame offsets: 
#        150
#        14667
#        29754
#        42705
#        56833
#        74790
#        90553
#        103096
#        116085
#        129028
#        148020
#        165472
#        182238
#        198682
#
# Disc length: 2812 seconds
#
# Revision: 0
# Processed by: cddbd v1.5.2PL0 Copyright (c) Steve Scherf et al.
# Submitted via: ExactAudioCopyFreeDBPlugin 1.0
#
DISCID=db0afa0e
DTITLE=Sam Smith - In the Lonely Hour
DYEAR=2014
DGENRE=Pop
TTITLE0=Money On My Mind
TTITLE1=Good Thing
TTITLE2=Stay With Me
TTITLE3=Leave Your Lover
TTITLE4=I’m Not The Only One
TTITLE5=I’ve Told You Now
TTITLE6=Like I Can
TTITLE7=Life Support
TTITLE8=Not In That Way
TTITLE9=Lay Me Down
TTITLE10=Restart
TTITLE11=Latch (Acoustic)
TTITLE12=La La La (Naughty Boy Feat. Sam Smith)
TTITLE13=Make It To Me
EXTD=Release Label: Capitol Records ‎– 3769173, Method Records ‎– 3769
EXTD=173, \nBarcode: 602537691739\nRelease date: 2014\nRelease country
EXTD=: XE\nRelease catalog#: 3769173\n\n
EXTT0=
EXTT1=
EXTT2=
EXTT3=
EXTT4=
EXTT5=
EXTT6=
EXTT7=
EXTT8=
EXTT9=
EXTT10=
EXTT11=
EXTT12=
EXTT13=
PLAYORDER=
